<?xml version="1.0" standalone="no"?>
<!DOCTYPE svg PUBLIC "-//W3C//DTD SVG 20010904//EN"
 "http://www.w3.org/TR/2001/REC-SVG-20010904/DTD/svg10.dtd">
<svg version="1.0" xmlns="http://www.w3.org/2000/svg"
 width="320.000000pt" height="371.000000pt" viewBox="0 0 320.000000 371.000000"
 preserveAspectRatio="xMidYMid meet">

<g transform="translate(0.000000,371.000000) scale(0.100000,-0.100000)"
fill="#000000" stroke="none">
<path d="M0 3362 l0 -349 25 -11 c30 -14 69 -2 84 26 6 11 31 25 57 32 41 12
52 11 104 -7 61 -22 63 -22 124 21 32 22 149 35 161 17 4 -7 0 -20 -9 -30 -20
-22 -20 -31 0 -31 19 0 13 -46 -14 -111 -48 -114 -54 -239 -17 -340 9 -24 26
-79 37 -121 19 -72 19 -82 6 -135 -10 -41 -12 -80 -7 -133 8 -86 0 -104 -35
-71 -22 21 -27 21 -67 11 -24 -7 -52 -18 -63 -26 -12 -8 -45 -14 -76 -14 -30
0 -75 -7 -100 -16 -58 -20 -139 -13 -180 16 l-30 21 0 -1057 0 -1056 57 4 c36
3 84 17 126 36 37 18 70 32 73 32 3 0 18 8 32 19 48 32 185 101 204 101 10 0
18 7 18 15 0 16 17 19 44 9 9 -3 13 -10 10 -15 -3 -5 -1 -9 5 -9 6 0 13 -23
17 -51 5 -38 10 -49 21 -45 8 4 19 6 24 6 5 0 9 9 9 20 0 12 9 24 23 29 17 7
29 25 41 65 10 31 22 56 27 56 5 0 9 9 9 21 0 16 -4 20 -17 15 -17 -6 -17 -5
-1 8 10 7 18 20 18 28 0 8 3 18 7 22 7 7 31 69 38 97 5 25 28 63 42 72 7 4 13
19 13 32 0 15 6 25 14 25 8 0 14 6 13 13 0 6 1 26 2 42 2 28 4 26 15 -15 7
-25 8 -50 4 -56 -4 -6 -11 -32 -14 -58 -4 -25 -10 -46 -14 -46 -4 0 -5 -20 -3
-44 3 -26 1 -46 -6 -50 -6 -4 -11 -16 -11 -26 0 -11 -6 -39 -13 -62 -8 -24
-22 -70 -31 -103 -34 -119 -33 -117 -87 -110 l-48 7 -3 -34 c-2 -27 -8 -34
-33 -39 l-30 -7 28 -1 c16 0 37 4 47 9 13 7 21 7 25 0 4 -7 280 -10 800 -10
l794 0 7 34 c3 21 0 52 -9 78 -32 94 -37 116 -37 163 0 57 21 155 33 155 4 0
5 4 2 10 -3 5 -8 34 -10 62 -3 31 -1 47 4 40 6 -10 10 -8 14 8 3 13 0 23 -7
26 -16 6 -15 42 1 52 17 10 12 122 -4 122 -17 0 -16 5 4 43 9 18 18 37 19 42
1 6 23 55 49 110 69 148 74 158 88 211 16 62 52 130 72 137 19 8 19 31 0 47
-10 9 -14 22 -10 39 3 14 8 39 11 55 3 16 14 42 26 58 14 21 23 53 27 106 6
66 8 72 15 45 4 -18 10 -33 13 -33 20 0 83 102 83 134 0 21 -22 66 -29 61 -4
-2 -12 5 -19 15 -9 14 -9 21 0 26 6 4 8 3 4 -4 -3 -6 -2 -13 3 -16 5 -4 8 2 6
11 -2 10 -4 25 -4 33 -1 9 -9 3 -21 -15 -15 -22 -20 -25 -20 -12 0 10 7 28 15
40 13 21 47 159 43 175 -1 4 6 26 17 50 21 46 44 54 83 26 21 -14 23 -22 18
-67 -3 -29 -8 -109 -11 -180 -6 -114 -5 -128 10 -134 23 -8 83 14 118 43 16
13 36 24 46 24 9 0 22 5 28 11 7 7 25 4 60 -9 44 -17 56 -18 88 -6 20 7 48 22
61 35 l24 22 0 919 0 918 -1600 0 -1600 0 0 -348z m1745 318 c3 -5 2 -10 -4
-10 -5 0 -13 5 -16 10 -3 6 -2 10 4 10 5 0 13 -4 16 -10z m30 -20 c-3 -5 -11
-10 -16 -10 -6 0 -7 5 -4 10 3 6 11 10 16 10 6 0 7 -4 4 -10z m-424 -1005 c5
-4 80 -9 167 -11 86 -3 198 -7 247 -8 88 -3 177 -17 242 -37 23 -7 44 -6 72 2
34 10 45 9 82 -9 24 -11 61 -28 82 -37 45 -19 56 -43 61 -130 2 -35 7 -68 10
-74 4 -5 2 -12 -4 -16 -5 -3 -10 -28 -10 -55 0 -40 6 -55 36 -92 19 -23 41
-48 48 -53 14 -11 55 -87 61 -114 2 -9 11 -40 19 -70 44 -159 45 -357 2 -483
-43 -127 -60 -222 -58 -333 0 -35 -29 -115 -40 -109 -6 4 -8 -2 -3 -17 3 -14
3 -19 -2 -12 -6 8 -21 -2 -48 -34 -22 -25 -40 -51 -40 -57 0 -6 -8 -22 -18
-36 -18 -24 -18 -24 -32 -6 -8 11 -16 18 -17 15 -2 -2 -8 -13 -14 -24 -7 -12
-21 -19 -32 -18 -17 2 -23 -5 -28 -32 -7 -37 -18 -45 -27 -21 -4 9 -14 12 -27
9 -18 -5 -21 -2 -20 18 1 13 1 26 0 29 0 3 -3 20 -5 38 -1 19 -14 45 -29 61
-14 15 -26 37 -26 50 0 19 -4 22 -22 17 -16 -4 -28 1 -41 17 -13 15 -20 18
-24 10 -6 -17 -33 -17 -34 0 0 6 -4 2 -9 -10 -5 -13 -14 -23 -19 -23 -5 0 -11
-8 -13 -19 -3 -18 -5 -18 -53 -3 -27 9 -51 19 -53 23 -3 7 -16 5 -52 -9 -24
-9 -100 -10 -100 -2 0 4 17 11 38 15 20 4 42 10 47 15 16 13 85 21 85 10 0 -6
9 -10 20 -10 13 0 22 9 26 25 3 14 10 25 15 25 5 0 9 5 9 10 0 6 -7 10 -15 10
-8 0 -15 -4 -15 -10 0 -5 -6 -7 -14 -4 -18 7 -14 73 7 106 9 13 17 39 19 58
l3 35 -58 -1 c-32 0 -62 -5 -65 -11 -20 -29 -129 -13 -176 26 -9 8 -19 11 -23
8 -3 -4 -12 -2 -20 4 -7 6 -13 9 -13 6 0 -3 -14 -2 -32 3 -20 6 -36 6 -44 -1
-24 -20 -24 9 0 62 28 62 43 144 28 153 -18 11 -37 -3 -38 -28 -1 -14 -14 -49
-28 -79 -15 -30 -31 -83 -36 -117 -5 -35 -14 -66 -20 -70 -7 -4 -11 -11 -11
-16 2 -16 -59 -83 -82 -90 -26 -8 -44 -26 -57 -56 -8 -19 -9 -16 -6 18 2 23 9
51 15 62 9 17 8 23 -6 31 -16 9 -16 10 5 11 12 0 22 6 22 14 0 8 6 17 13 19 7
3 6 6 -5 6 -9 1 -33 21 -53 45 -26 32 -41 43 -55 39 -14 -4 -20 0 -20 11 0 9
-6 16 -12 16 -9 0 -9 3 1 9 12 8 12 12 2 25 -11 13 -11 16 0 16 7 0 3 10 -11
25 -13 14 -18 25 -12 25 20 0 1 30 -29 45 -15 8 -43 15 -62 15 -31 0 -35 -4
-57 -52 -24 -55 -38 -71 -53 -61 -5 3 -6 -10 -3 -28 2 -18 0 -41 -6 -52 -6
-13 -7 -22 0 -26 11 -7 21 -91 10 -91 -3 0 -9 -8 -12 -18 -3 -9 -4 -2 -2 15 1
18 -1 34 -6 35 -8 3 -32 116 -48 228 -26 173 -3 501 41 595 26 55 68 100 82
86 7 -7 14 -4 21 11 6 12 25 28 43 37 17 9 36 24 43 35 11 17 9 18 -19 14 -17
-2 -31 -4 -31 -2 0 1 7 19 16 40 11 26 14 53 10 84 -3 26 -4 49 -1 52 4 3 20
-1 36 -9 22 -11 33 -12 43 -4 7 6 20 9 28 6 10 -4 17 2 21 16 5 18 9 20 20 11
11 -10 20 -9 41 2 23 11 24 15 11 26 -16 13 -19 38 -9 65 5 13 8 14 15 3 9
-13 14 15 10 55 -1 9 1 17 6 17 5 0 21 12 38 28 16 15 38 32 50 38 20 12 76
11 96 -1z m-792 -584 c-24 -19 -24 -19 -4 -40 16 -19 16 -21 2 -15 -15 5 -17
-1 -17 -47 0 -39 -3 -50 -11 -42 -18 18 -7 138 16 163 12 13 22 17 28 11 7 -7
2 -17 -14 -30z m19 -231 c27 58 28 37 1 -27 -17 -40 -20 -64 -17 -140 2 -50 0
-89 -3 -87 -14 9 -28 95 -29 189 -2 125 -1 132 14 70 l13 -50 21 45z m92 -246
c0 -45 -24 -42 -28 4 -2 24 1 32 12 32 12 0 16 -10 16 -36z m-34 -98 c1 -36 0
-66 -3 -66 -8 0 -31 64 -38 108 -7 41 -6 42 17 33 21 -7 23 -15 24 -75z m-37
-31 l0 -20 -9 20 c-5 11 -9 27 -9 35 -1 13 0 13 9 0 5 -8 9 -24 9 -35z m726
-271 c-5 -28 -10 -34 -30 -34 -16 0 -25 6 -25 15 0 8 5 15 10 15 6 0 10 9 10
19 0 10 7 21 15 25 8 3 16 13 16 23 1 11 3 9 6 -6 3 -13 2 -39 -2 -57z m-195
-173 c0 -17 -18 -21 -24 -6 -3 9 0 15 9 15 8 0 15 -4 15 -9z m426 -16 c19 -14
19 -14 -2 -15 -11 0 -29 7 -40 15 -19 14 -19 14 2 15 11 0 29 -7 40 -15z
m-690 -116 c7 -8 13 -28 12 -45 -1 -16 1 -42 5 -58 7 -26 6 -28 -8 -16 -8 7
-13 15 -11 17 3 3 1 16 -4 29 -6 15 -6 24 0 24 6 0 10 5 10 10 0 6 -7 10 -15
10 -11 0 -15 11 -14 48 1 27 4 36 6 22 3 -14 11 -32 19 -41z m874 -39 c33 -25
22 -33 -47 -36 -71 -3 -80 2 -54 30 26 28 69 31 101 6z m160 -28 c0 -4 -5 -13
-12 -20 -9 -9 -9 -12 1 -12 11 0 11 -3 1 -15 -9 -11 -17 -12 -32 -4 -12 6 -16
14 -11 18 5 3 12 14 16 24 6 17 37 25 37 9z m307 -24 c-3 -7 -5 -2 -5 12 0 14
2 19 5 13 2 -7 2 -19 0 -25z m-1293 -3 c3 -8 1 -15 -4 -15 -6 0 -10 7 -10 15
0 8 2 15 4 15 2 0 6 -7 10 -15z m-14 -56 c0 -13 -13 -11 -35 5 -18 13 -18 14
8 9 15 -3 27 -9 27 -14z m-4 -39 c14 0 19 -12 8 -23 -8 -7 -64 13 -64 24 0 4
7 6 15 3 9 -4 15 0 16 7 0 11 2 11 6 2 2 -7 11 -13 19 -13z m850 -100 c26 -6
53 -6 74 0 18 5 37 7 42 4 13 -8 -16 -32 -48 -40 -16 -4 -36 -12 -44 -19 -21
-17 -73 -26 -90 -15 -9 5 -20 4 -28 -2 -18 -15 -31 4 -25 36 3 16 16 27 36 34
42 13 36 13 83 2z m-59 -112 c-3 -8 -6 -5 -6 6 -1 11 2 17 5 13 3 -3 4 -12 1
-19z m-1082 -218 c-3 -5 -12 -10 -18 -10 -7 0 -6 4 3 10 19 12 23 12 15 0z
m1632 -42 c-3 -8 -6 -5 -6 6 -1 11 2 17 5 13 3 -3 4 -12 1 -19z m-1664 5 c-7
-2 -19 -2 -25 0 -7 3 -2 5 12 5 14 0 19 -2 13 -5z"/>
<path d="M872 2099 c2 -6 8 -10 13 -10 5 0 11 4 13 10 2 6 -4 11 -13 11 -9 0
-15 -5 -13 -11z"/>
<path d="M1155 2088 c-44 -4 -90 -5 -103 -2 -38 8 -94 -17 -143 -66 -43 -41
-47 -50 -53 -105 -14 -130 -13 -176 6 -186 9 -5 15 -15 12 -23 -4 -10 2 -12
20 -9 15 3 44 -5 73 -20 53 -28 119 -47 173 -50 19 -1 41 -6 48 -11 18 -11 80
-10 95 2 6 5 30 15 52 22 22 7 44 16 50 21 20 19 38 10 32 -18 -2 -16 -1 -37
3 -48 5 -11 9 -16 9 -11 1 5 7 3 15 -3 23 -20 42 26 59 146 9 66 23 123 34
139 25 39 26 67 3 92 -11 11 -20 25 -20 30 0 10 -67 65 -84 69 -53 13 -108 24
-146 29 -24 3 -47 7 -50 8 -3 1 -41 -2 -85 -6z"/>
<path d="M2176 2073 c-8 -8 -29 -10 -180 -18 -59 -3 -116 -10 -126 -15 -10 -6
-27 -10 -38 -10 -11 0 -36 -11 -56 -25 -20 -13 -43 -22 -51 -19 -9 4 -15 0
-16 -7 -7 -129 -3 -193 13 -213 31 -38 47 -52 75 -67 16 -7 46 -24 68 -38 31
-19 51 -23 101 -22 72 2 177 27 183 43 11 31 51 56 101 63 39 5 54 12 57 26 3
10 9 19 14 19 5 0 2 14 -7 31 -17 33 -17 34 29 60 25 15 22 66 -9 106 -14 18
-30 33 -37 33 -7 0 -32 14 -57 30 -48 32 -53 34 -64 23z m-56 -243 c13 -9 13
-11 0 -20 -21 -14 -40 -12 -40 3 0 26 16 33 40 17z m30 -80 c0 -5 -5 -10 -11
-10 -5 0 -7 5 -4 10 3 6 8 10 11 10 2 0 4 -4 4 -10z"/>
<path d="M1391 1604 c0 -11 3 -14 6 -6 3 7 2 16 -1 19 -3 4 -6 -2 -5 -13z"/>
<path d="M2350 1101 c-12 -24 -13 -34 -1 -27 9 6 22 46 15 46 -2 0 -8 -9 -14
-19z"/>
<path d="M2261 994 c0 -11 3 -14 6 -6 3 7 2 16 -1 19 -3 4 -6 -2 -5 -13z"/>
<path d="M2200 966 c0 -14 5 -28 11 -31 15 -10 18 -4 12 28 -7 34 -23 36 -23
3z"/>
<path d="M2240 920 c0 -5 5 -10 11 -10 5 0 7 5 4 10 -3 6 -8 10 -11 10 -2 0
-4 -4 -4 -10z"/>
<path d="M2681 1931 c-23 -18 -23 -20 -11 -72 23 -98 32 -103 45 -26 11 66 10
117 -4 117 -3 0 -17 -9 -30 -19z m19 -35 c0 -24 -17 -28 -23 -6 -3 13 0 20 9
20 8 0 14 -6 14 -14z"/>
<path d="M717 163 c-4 -3 -7 -22 -6 -42 l1 -36 13 30 c8 17 14 36 15 43 0 13
-13 16 -23 5z"/>
</g>
</svg>
