<?xml version="1.0" encoding="UTF-8"?>
<svg version="1.1" xmlns="http://www.w3.org/2000/svg" width="92" height="92">
<path d="M0 0 C7.51402146 4.74509306 12.90133542 11.19960675 15.13671875 19.87109375 C16.72776706 30.30956025 16.91592369 42.36585641 10.703125 51.265625 C5.0215945 58.10153007 -1.08925394 61.8279284 -9.4453125 64.61328125 C-21.34001616 65.46725997 -31.96089707 65.40567537 -41.8125 57.78125 C-48.74051054 51.34809736 -52.12279125 44.38765201 -52.6484375 34.9765625 C-52.89231996 22.66731496 -51.89828666 14.082846 -42.99609375 4.81640625 C-31.40925481 -5.19121574 -13.61723194 -6.69545338 0 0 Z " fill="#000071" transform="translate(64.4453125,15.38671875)"/>
<path d="M0 0 C7.51402146 4.74509306 12.90133542 11.19960675 15.13671875 19.87109375 C16.72776706 30.30956025 16.91592369 42.36585641 10.703125 51.265625 C5.0215945 58.10153007 -1.08925394 61.8279284 -9.4453125 64.61328125 C-21.34001616 65.46725997 -31.96089707 65.40567537 -41.8125 57.78125 C-48.74051054 51.34809736 -52.12279125 44.38765201 -52.6484375 34.9765625 C-52.89231996 22.66731496 -51.89828666 14.082846 -42.99609375 4.81640625 C-31.40925481 -5.19121574 -13.61723194 -6.69545338 0 0 Z M-38.4453125 12.61328125 C-43.3502007 20.27716906 -45.31730043 26.47532556 -44.4453125 35.61328125 C-42.30327449 43.4822188 -39.09640123 49.23180118 -31.9453125 53.36328125 C-25.41408959 56.89729913 -18.56418094 57.7762442 -11.26171875 56.1171875 C-3.22387643 53.34389687 1.66465054 49.33364989 5.609375 41.796875 C8.43825131 35.26240451 8.74795864 28.19309466 6.49609375 21.4375 C2.75283086 13.29159188 -1.49977172 8.66614723 -9.7578125 5.23828125 C-20.51416551 3.41517057 -30.48638892 4.43327646 -38.4453125 12.61328125 Z " fill="#000000" transform="translate(64.4453125,15.38671875)"/>
<path d="M0 0 C4.8846525 2.26787438 7.73212562 5.1153475 10 10 C10.75381535 15.5997712 10.77303575 20.33499991 8.375 25.5 C3.80134327 30.3143755 0.6912538 32.25156236 -6 32.5 C-12.6912538 32.25156236 -15.80134327 30.3143755 -20.375 25.5 C-22.77303575 20.33499991 -22.75381535 15.5997712 -22 10 C-17.52212837 0.3553534 -9.85292056 -1.32635469 0 0 Z " fill="#A86934" transform="translate(49,27)"/>
<path d="M0 0 C7.03899232 -0.65175855 12.2147403 0.84495094 18 5 C22.17752076 9.90238738 24.45631107 15.15544023 24.3359375 21.6796875 C23.55263453 27.08994287 21.17674587 32.14510761 16.9921875 35.7109375 C11.58204525 39.16464455 6.49004978 40.93963684 0 40 C-6.60947464 37.85041402 -10.81330001 34.989195 -14.16015625 28.8671875 C-16.19150399 24.35098183 -16.0798356 20.86997168 -16 16 C-15.67 16 -15.34 16 -15 16 C-14.90203125 16.59167969 -14.8040625 17.18335937 -14.703125 17.79296875 C-13.74924491 22.83373164 -12.80029049 26.31148276 -9 30 C-4.10004994 33.06788908 1.42488706 32.60453032 7 32 C11.61581142 29.81356301 13.72864085 27.50400196 16 23 C16.82885269 17.45191396 16.7240695 12.52859117 14.3125 7.4375 C9.90560002 2.79238921 6.35161962 1.62270781 0 1 C0 0.67 0 0.34 0 0 Z " fill="#00455F" transform="translate(42,26)"/>
<path d="M0 0 C4.81729612 3.54845473 7.03209615 6.99899611 8 13 C8.14076004 17.00663412 8.11842922 20.99314476 8 25 C7.34 25 6.68 25 6 25 C6 26.65 6 28.3 6 30 C5.34 30 4.68 30 4 30 C4.165 29.01 4.33 28.02 4.5 27 C5.50513339 19.4005824 5.47666368 14.13609697 1.74609375 7.27734375 C-1.73859489 2.73243664 -6.56348363 0.64911976 -12.109375 -0.3984375 C-17.28295322 -0.66746357 -22.38612258 0.73401287 -27 3 C-31.75703091 7.39110546 -32.7194509 12.55521496 -33.4375 18.8125 C-33.2385053 24.19583033 -31.25694135 28.75213243 -28 33 C-23.38821742 36.53596366 -17.97903682 38.88538687 -12.08984375 38.5 C-7.74192373 37.45974998 -3.74634531 35.40992973 0 33 C0.495 32.01 0.495 32.01 1 31 C1.66 31 2.32 31 3 31 C2.49396008 33.16874252 2.00016187 34.99967627 1 37 C0.01 37.33 -0.98 37.66 -2 38 C-2.495 38.99 -2.495 38.99 -3 40 C-11.833141 42.40761719 -19.94328717 41.7600745 -27.94140625 37.38671875 C-32.65920846 34.2086926 -34.6897089 30.52447059 -36 25 C-37.03170572 15.96029276 -35.65809573 8.96455849 -30.25 1.625 C-21.73604207 -4.52396962 -9.14999641 -5.43281037 0 0 Z " fill="#00005D" transform="translate(60,27)"/>
<path d="M0 0 C4.8846525 2.26787438 7.73212562 5.1153475 10 10 C10.75381535 15.5997712 10.77303575 20.33499991 8.375 25.5 C3.80134327 30.3143755 0.6912538 32.25156236 -6 32.5 C-12.6912538 32.25156236 -15.80134327 30.3143755 -20.375 25.5 C-22.77303575 20.33499991 -22.75381535 15.5997712 -22 10 C-17.52212837 0.3553534 -9.85292056 -1.32635469 0 0 Z M-10 2 C-10.74957157 5.47147842 -10.74957157 5.47147842 -11 9 C-12.65 9.33 -14.3 9.66 -16 10 C-16 9.34 -16 8.68 -16 8 C-16.66 8 -17.32 8 -18 8 C-17.67 10.31 -17.34 12.62 -17 15 C-17.99 14.67 -18.98 14.34 -20 14 C-19.6166563 19.65431955 -19.22219898 22.89508433 -15 27 C-11.00261746 30.13308361 -8.02373423 30.52881413 -3 30 C2.33739473 28.01155883 5.45333824 25.09332352 8 20 C8.63488801 14.73949938 8.39324614 11.96378812 5.25 7.625 C3.09896668 4.89818504 1.26716698 3.23756325 -2 2 C-4.13287373 1.76079045 -4.13287373 1.76079045 -6.25 1.875 C-7.4875 1.91625 -8.725 1.9575 -10 2 Z " fill="#E9E9E8" transform="translate(49,27)"/>
<path d="M0 0 C1.98 0 3.96 0 6 0 C6 0.99 6 1.98 6 3 C6.33 3.66 6.66 4.32 7 5 C9.64 5 12.28 5 15 5 C15 8.96 15 12.92 15 17 C11.38069302 18.20643566 8.80768995 18.32268559 5 18 C1.5625 16 1.5625 16 -1 14 C-0.34 12.02 0.32 10.04 1 8 C0.360625 7.896875 -0.27875 7.79375 -0.9375 7.6875 C-1.618125 7.460625 -2.29875 7.23375 -3 7 C-3.33 6.01 -3.66 5.02 -4 4 C-3.01 3.34 -2.02 2.68 -1 2 C-0.67 1.34 -0.34 0.68 0 0 Z " fill="#A87A4C" transform="translate(34,39)"/>
<path d="M0 0 C7.03899232 -0.65175855 12.2147403 0.84495094 18 5 C22.17752076 9.90238738 24.45631107 15.15544023 24.3359375 21.6796875 C23.55263453 27.08994287 21.17674587 32.14510761 16.9921875 35.7109375 C11.58204525 39.16464455 6.49004978 40.93963684 0 40 C-6.60947464 37.85041402 -10.81330001 34.989195 -14.16015625 28.8671875 C-16.19150399 24.35098183 -16.0798356 20.86997168 -16 16 C-15.67 16 -15.34 16 -15 16 C-14.89042969 16.58007812 -14.78085937 17.16015625 -14.66796875 17.7578125 C-13.00959734 25.92832531 -10.81404614 31.03142469 -4 36 C1.39919857 37.79973286 6.93557265 37.70112627 12.3125 35.875 C16.43843192 32.99644284 19.37787651 29.86637047 21 25 C21.65389571 17.69397291 20.93742721 12.67178401 16.25 6.8125 C11.37073215 2.88197868 6.13477478 1.62599743 0 1 C0 0.67 0 0.34 0 0 Z " fill="#005B5B" transform="translate(42,26)"/>
<path d="M0 0 C2.0078125 0.23046875 2.0078125 0.23046875 5.0078125 2.23046875 C5.0078125 3.22046875 5.0078125 4.21046875 5.0078125 5.23046875 C3.9146875 5.20984375 2.8215625 5.18921875 1.6953125 5.16796875 C-1.93602941 5.04502423 -1.93602941 5.04502423 -4.9921875 6.23046875 C-4.6621875 7.88046875 -4.3321875 9.53046875 -3.9921875 11.23046875 C-6.3021875 11.23046875 -8.6121875 11.23046875 -10.9921875 11.23046875 C-11.3221875 12.22046875 -11.6521875 13.21046875 -11.9921875 14.23046875 C-12.9821875 14.72546875 -12.9821875 14.72546875 -13.9921875 15.23046875 C-13.6621875 15.89046875 -13.3321875 16.55046875 -12.9921875 17.23046875 C-10.96755495 17.88260167 -10.96755495 17.88260167 -8.9921875 18.23046875 C-10.4771875 20.70546875 -10.4771875 20.70546875 -11.9921875 23.23046875 C-14.0265334 21.8152716 -14.89629143 20.68064752 -15.4140625 18.25 C-15.65492702 16.24869921 -15.82751491 14.23947435 -15.9921875 12.23046875 C-15.0021875 12.56046875 -14.0121875 12.89046875 -12.9921875 13.23046875 C-13.3221875 10.92046875 -13.6521875 8.61046875 -13.9921875 6.23046875 C-13.3321875 6.23046875 -12.6721875 6.23046875 -11.9921875 6.23046875 C-11.9921875 6.89046875 -11.9921875 7.55046875 -11.9921875 8.23046875 C-10.3421875 7.90046875 -8.6921875 7.57046875 -6.9921875 7.23046875 C-7.0128125 6.26109375 -7.0334375 5.29171875 -7.0546875 4.29296875 C-6.94627419 -1.01928363 -4.78755185 0.09716434 0 0 Z " fill="#8B3027" transform="translate(44.9921875,28.76953125)"/>
<path d="M0 0 C4.14843485 1.84866286 6.26089141 4.37253187 9 8 C10.78793044 13.36379133 10.69055197 18.88772338 8.9375 24.25 C5.82443568 28.66854291 2.17827004 32.27390999 -3 34 C-9.00909059 34.53781878 -13.85704445 34.46850491 -19 31 C-21.875 28.3125 -21.875 28.3125 -24 26 C-23.67 25.34 -23.34 24.68 -23 24 C-21.49460339 24.94983358 -19.99579653 25.91011891 -18.5 26.875 C-17.24703125 27.67550781 -17.24703125 27.67550781 -15.96875 28.4921875 C-15.3190625 28.98976563 -14.669375 29.48734375 -14 30 C-14 30.66 -14 31.32 -14 32 C-7.19071099 32.43463547 -0.8407766 31.47657447 4.4375 26.875 C7.26621519 21.67016405 8.38203421 15.92153022 8 10 C7.01 9.67 6.02 9.34 5 9 C3.61328125 6.93359375 3.61328125 6.93359375 2.3125 4.4375 C1.87550781 3.61121094 1.43851563 2.78492188 0.98828125 1.93359375 C0.49908203 0.97646484 0.49908203 0.97646484 0 0 Z " fill="#004B6F" transform="translate(54,30)"/>
<path d="M0 0 C0.53625 0.2475 1.0725 0.495 1.625 0.75 C0.965 1.41 0.305 2.07 -0.375 2.75 C-0.77264263 4.73821313 -1.11275349 6.73944339 -1.375 8.75 C-3.025 9.08 -4.675 9.41 -6.375 9.75 C-6.375 9.09 -6.375 8.43 -6.375 7.75 C-7.035 7.75 -7.695 7.75 -8.375 7.75 C-8.045 10.06 -7.715 12.37 -7.375 14.75 C-8.035 14.75 -8.695 14.75 -9.375 14.75 C-9.16875 16.008125 -8.9625 17.26625 -8.75 18.5625 C-8.16164331 22.1514758 -8.20882585 22.50073878 -10.375 25.75 C-13.36592469 20.74917391 -12.98048697 15.39616599 -12.375 9.75 C-10.13456414 4.92444583 -5.88621303 -0.61960137 0 0 Z " fill="#DCD6D4" transform="translate(39.375,27.25)"/>
<path d="M0 0 C0.66 0 1.32 0 2 0 C2 3.96 2 7.92 2 12 C-1.61930698 13.20643566 -4.19231005 13.32268559 -8 13 C-11.4375 11 -11.4375 11 -14 9 C-13.67 8.01 -13.34 7.02 -13 6 C-11.948125 6.2475 -11.948125 6.2475 -10.875 6.5 C-7.86111806 7.02415338 -5.05286375 7.07099683 -2 7 C-1.34 4.69 -0.68 2.38 0 0 Z " fill="#99AAA3" transform="translate(47,44)"/>
<path d="M0 0 C4.875 4.75 4.875 4.75 6 7 C4.35 7.66 2.7 8.32 1 9 C1 7.68 1 6.36 1 5 C0.34 5 -0.32 5 -1 5 C-1.33 5.99 -1.66 6.98 -2 8 C-4.64 7.67 -7.28 7.34 -10 7 C-10 6.01 -10 5.02 -10 4 C-6.21812119 2.16308743 -4.05431692 1.84162374 0 3 C0 2.01 0 1.02 0 0 Z " fill="#B88E8E" transform="translate(50,31)"/>
<path d="M0 0 C1.98 0 3.96 0 6 0 C6 2.33333333 6 4.66666667 6 7 C5.01 7.33 4.02 7.66 3 8 C3 7.34 3 6.68 3 6 C1.35 6.66 -0.3 7.32 -2 8 C-2.66 6.68 -3.32 5.36 -4 4 C-3.01 3.34 -2.02 2.68 -1 2 C-0.67 1.34 -0.34 0.68 0 0 Z " fill="#9C7B6A" transform="translate(34,39)"/>
<path d="M0 0 C0.99 0.33 1.98 0.66 3 1 C3 3.64 3 6.28 3 9 C1.02 9 -0.96 9 -3 9 C-3.66 7.02 -4.32 5.04 -5 3 C-3.68 3 -2.36 3 -1 3 C-0.67 2.01 -0.34 1.02 0 0 Z " fill="#8E6D61" transform="translate(54,38)"/>
<path d="M0 0 C1.258125 -0.04125 2.51625 -0.0825 3.8125 -0.125 C4.52019531 -0.14820312 5.22789063 -0.17140625 5.95703125 -0.1953125 C8 0 8 0 11 2 C11 2.99 11 3.98 11 5 C9.906875 4.979375 8.81375 4.95875 7.6875 4.9375 C4.05615809 4.81455548 4.05615809 4.81455548 1 6 C0.67 4.02 0.34 2.04 0 0 Z " fill="#EB5C28" transform="translate(39,29)"/>
<path d="M0 0 C0.66 0 1.32 0 2 0 C2 3.96 2 7.92 2 12 C-1.47325181 13.1577506 -4.36067448 13.06866652 -8 13 C-6.68 12.67 -5.36 12.34 -4 12 C-4 11.34 -4 10.68 -4 10 C-3.34 9.34 -2.68 8.68 -2 8 C-1.32707499 6.03309626 -1.32707499 6.03309626 -0.875 3.875 C-0.441875 1.956875 -0.441875 1.956875 0 0 Z " fill="#CAC182" transform="translate(47,44)"/>
<path d="M0 0 C2.0625 0.4375 2.0625 0.4375 4 1 C0.00386479 4.71069698 -2.37082652 6.59791618 -8 7 C-7 4 -7 4 -4 2.375 C-3.01 1.92125 -2.02 1.4675 -1 1 C-0.67 0.67 -0.34 0.34 0 0 Z " fill="#EAE4D3" transform="translate(53,52)"/>
<path d="M0 0 C1.485 0.99 1.485 0.99 3 2 C3 2.99 3 3.98 3 5 C4.32 5.33 5.64 5.66 7 6 C5.515 8.475 5.515 8.475 4 11 C1.9656541 9.58480285 1.09589607 8.45017877 0.578125 6.01953125 C0.33726048 4.01823046 0.16467259 2.0090056 0 0 Z " fill="#6E5745" transform="translate(29,41)"/>
<path d="M0 0 C0.66 0 1.32 0 2 0 C2 1.32 2 2.64 2 4 C0.35 4 -1.3 4 -3 4 C-3.33 4.66 -3.66 5.32 -4 6 C-5.32 6 -6.64 6 -8 6 C-8 4.68 -8 3.36 -8 2 C-5.69 2 -3.38 2 -1 2 C-0.67 1.34 -0.34 0.68 0 0 Z " fill="#DD5E19" transform="translate(49,36)"/>
<path d="M0 0 C1.99825961 2.99738941 2.27550398 3.63347508 2.25 7 C2.25515625 7.680625 2.2603125 8.36125 2.265625 9.0625 C2 11 2 11 0 14 C-0.99 13.67 -1.98 13.34 -3 13 C-2.68289062 12.43796875 -2.36578125 11.8759375 -2.0390625 11.296875 C-0.93125475 8.84803683 -0.61024601 6.91612145 -0.375 4.25 C-0.30023438 3.45078125 -0.22546875 2.6515625 -0.1484375 1.828125 C-0.09945312 1.22484375 -0.05046875 0.6215625 0 0 Z " fill="#F5F1EA" transform="translate(57,38)"/>
<path d="M0 0 C0.66 0.33 1.32 0.66 2 1 C1.67 2.65 1.34 4.3 1 6 C-0.65 6.33 -2.3 6.66 -4 7 C-4.33 6.01 -4.66 5.02 -5 4 C-3.35 2.68 -1.7 1.36 0 0 Z " fill="#D29163" transform="translate(37,30)"/>
<path d="M0 0 C1.65 1.65 3.3 3.3 5 5 C3.625 6.5 3.625 6.5 2 8 C1.34 8 0.68 8 0 8 C0 5.36 0 2.72 0 0 Z " fill="#5E86BC" transform="translate(51,32)"/>
<path d="M0 0 C1.8871875 0.061875 1.8871875 0.061875 3.8125 0.125 C4.1425 1.115 4.4725 2.105 4.8125 3.125 C0.8525 2.795 -3.1075 2.465 -7.1875 2.125 C-4.09861478 0.06574319 -3.47814073 -0.1140374 0 0 Z " fill="#FCF1ED" transform="translate(45.1875,26.875)"/>
<path d="M0 0 C0.66 0 1.32 0 2 0 C2.33 1.65 2.66 3.3 3 5 C5.31 5 7.62 5 10 5 C10 5.33 10 5.66 10 6 C3.375 7.25 3.375 7.25 0 5 C-0.1875 2.375 -0.1875 2.375 0 0 Z " fill="#CC8749" transform="translate(35,45)"/>
<path d="M0 0 C2.31 0 4.62 0 7 0 C7 0.99 7 1.98 7 3 C5.02 3 3.04 3 1 3 C0.67 2.01 0.34 1.02 0 0 Z " fill="#D39E67" transform="translate(50,44)"/>
<path d="M0 0 C0.33 0 0.66 0 1 0 C1 1.65 1 3.3 1 5 C0.34 5 -0.32 5 -1 5 C-1.33 5.66 -1.66 6.32 -2 7 C-5 5 -5 5 -6 3 C-4.02 3 -2.04 3 0 3 C0 2.01 0 1.02 0 0 Z " fill="#91748A" transform="translate(50,31)"/>
<path d="M0 0 C0.99 0 1.98 0 3 0 C3.66 1.65 4.32 3.3 5 5 C2 5 2 5 -1 3 C-0.67 2.01 -0.34 1.02 0 0 Z " fill="#BAB977" transform="translate(34,50)"/>
<path d="M0 0 C1.65 0 3.3 0 5 0 C2.25 4.875 2.25 4.875 0 6 C0 4.02 0 2.04 0 0 Z " fill="#CD9737" transform="translate(51,48)"/>
<path d="M0 0 C1.32 0 2.64 0 4 0 C4 0.66 4 1.32 4 2 C4.99 2 5.98 2 7 2 C6.67 3.32 6.34 4.64 6 6 C6 5.01 6 4.02 6 3 C4.35 3 2.7 3 1 3 C0.67 3.66 0.34 4.32 0 5 C-0.5625 3.0625 -0.5625 3.0625 -1 1 C-0.67 0.67 -0.34 0.34 0 0 Z " fill="#79643B" transform="translate(40,41)"/>
<path d="M0 0 C1.4540625 0.0309375 1.4540625 0.0309375 2.9375 0.0625 C3.2675 0.7225 3.5975 1.3825 3.9375 2.0625 C0.9375 4.0625 0.9375 4.0625 -2.0625 4.0625 C-1.7325 3.4025 -1.4025 2.7425 -1.0625 2.0625 C-2.0525 1.7325 -3.0425 1.4025 -4.0625 1.0625 C-3.0625 0.0625 -3.0625 0.0625 0 0 Z " fill="#B77A5C" transform="translate(37.0625,38.9375)"/>
</svg>
